<svg width="1920" height="325" viewBox="0 0 1920 325" fill="none" xmlns="http://www.w3.org/2000/svg">
<path d="M1726.21 1.55817C1778.59 -5.77506 1842.96 13.6992 1900.35 40.607C1957.77 67.5276 2008.41 101.986 2033.39 124.854L2032.04 126.33C2007.24 103.626 1956.78 69.2717 1899.5 42.4175C1842.2 15.5506 1778.27 -3.71116 1726.49 3.53864C1661.49 12.6389 1623.28 26.2823 1588.65 41.6295C1554.02 56.979 1522.8 74.1159 1471.98 90.0884C1370.46 122 1234.31 163.079 1044.49 126.574C952.542 108.89 879.898 102.076 814.008 109.899C748.14 117.719 688.961 140.175 623.961 181.125C533.625 238.036 386.277 292.896 271.27 311.145C166.54 327.763 39.3616 329.401 -35.4961 311.128L-35.0215 309.186C39.4733 327.37 166.355 325.767 270.956 309.169C385.711 290.961 532.8 236.191 622.895 179.432C688.1 138.353 747.559 115.774 813.771 107.913C879.962 100.054 952.842 106.911 1044.87 124.61C1234.18 161.018 1369.94 120.069 1471.38 88.1802C1522.05 72.2528 1553.07 55.2116 1587.84 39.8004C1622.62 24.3866 1661.01 10.6869 1726.21 1.55817Z" fill="#F0F0F0"/>
</svg>
