<svg width="1224" height="345" viewBox="0 0 1224 345" fill="none" xmlns="http://www.w3.org/2000/svg">
<g clip-path="url(#clip0_3468_163)">
<path d="M310.133 66.9003C258.179 66.9003 227.223 113.647 227.223 172.306C227.223 230.965 258.689 278.936 310.133 278.936C361.577 278.936 393.363 231.609 393.363 172.886C393.363 114.162 362.088 66.8359 310.133 66.8359V66.9003ZM310.708 269.535C268.646 268.826 261.051 212.614 261.051 172.693C261.051 132.771 268.263 76.3656 310.325 76.3656C352.386 76.3656 359.599 132.449 359.599 172.693C359.599 212.936 352.578 270.307 310.644 269.535H310.708Z" fill="white" fill-opacity="0.4"/>
<path d="M210.233 3.39447C210.233 6.9359 208.191 9.89783 205.446 10.9281C205.446 10.9281 204.872 11.0568 204.616 11.1856C201.234 12.1515 198.17 14.0188 195.745 16.4656C192.043 20.2646 189.745 25.4157 189.745 31.1464V271.191H176.022L34.519 40.4185V243.568C34.519 253.033 40.8378 261.018 49.3905 263.529C49.7097 263.529 49.965 263.658 50.2203 263.786C53.0286 264.752 55.0072 267.714 55.0072 271.32H0.244141C0.244141 267.779 2.28659 264.817 5.03113 263.786C5.03113 263.786 5.60556 263.658 5.86087 263.529C9.24367 262.563 12.3073 260.696 14.7327 258.249C18.4347 254.45 20.7324 249.299 20.7324 243.568V31.082C20.7324 21.6168 14.4136 13.6324 5.86087 11.1212C5.54174 11.1212 5.28643 10.9925 5.03113 10.8637C2.22276 9.89783 0.244141 6.9359 0.244141 3.33008H52.3265L54.4328 6.74273L175.895 200.685V31.082C175.895 21.6168 169.576 13.6324 161.023 11.1212C160.704 11.1212 160.449 10.9925 160.193 10.8637C157.385 9.89783 155.406 6.9359 155.406 3.33008H210.297L210.233 3.39447Z" fill="white" fill-opacity="0.4"/>
<path d="M726.855 72.6953V73.6612C726.855 76.945 729.472 79.585 732.727 79.585C739.875 79.585 744.854 86.7323 742.365 93.4932L695.708 222.788L649.05 93.4932C646.625 86.7323 651.603 79.585 658.752 79.585C662.007 79.585 664.624 76.945 664.624 73.6612V72.6953H534.29V73.6612C534.29 76.945 536.907 79.585 540.162 79.585C547.311 79.585 552.289 86.7323 549.864 93.4932L503.207 222.723L456.55 93.4932C454.124 86.7323 459.103 79.585 466.188 79.585C469.443 79.585 472.06 76.945 472.06 73.6612V72.6953H394.383V73.4036C394.383 76.8163 397.127 79.6494 400.574 79.6494C409.254 79.6494 416.977 85.1225 419.913 93.3L484.889 273.398H499.505L564.48 93.3C567.416 85.1225 575.139 79.6494 583.82 79.6494H593.075C601.691 79.6494 609.414 85.1225 612.414 93.3L671.9 257.236C676.943 271.144 664.113 302.566 655.688 314.092C640.434 334.954 614.967 338.818 599.457 331.284C581.713 322.656 574.118 305.464 569.714 280.159H536.014C548.46 320.145 574.373 333.86 591.351 339.913C614.52 348.154 640.625 346.867 657.795 332.765C681.347 313.32 690.601 277.905 704.835 238.37C757.109 93.1068 749.705 113.712 757.109 93.1068C760.045 85.0581 767.64 79.6494 776.129 79.6494H776.193C779.639 79.6494 782.511 76.8163 782.511 73.2748V72.6953H726.727H726.855Z" fill="white" fill-opacity="0.4"/>
<path d="M1141.66 273.463H1223.87C1223.87 273.463 1223.94 273.463 1223.94 273.399V273.205C1223.94 269.535 1221 266.573 1217.36 266.573H1216.85C1207.53 266.573 1199.94 258.911 1199.94 249.51V0.0643897C1199.94 0.0643897 1199.87 0 1199.81 0C1174.09 5.6019 1148.43 5.6019 1148.43 5.6019C1148.43 9.4009 1151.49 12.556 1155.32 12.556C1158.13 12.556 1160.75 13.715 1162.6 15.5823C1164.45 17.4496 1165.6 20.0896 1165.6 22.9227V249.446C1165.6 258.847 1158 266.509 1148.69 266.509H1148.18C1144.54 266.509 1141.54 269.471 1141.54 273.205V273.399C1141.54 273.399 1141.54 273.463 1141.6 273.463H1141.66Z" fill="white" fill-opacity="0.4"/>
<path d="M1120.67 153.698C1114.54 104.246 1084.73 66.9004 1038.58 66.9004C986.63 66.9004 955.674 113.647 955.674 172.306C955.674 230.965 987.14 278.936 1038.58 278.936C1077.45 278.936 1110.52 252.407 1121.81 214.417H1088.11C1083.07 246.676 1067.56 269.986 1039.22 269.535C997.991 268.826 989.885 214.675 989.566 174.882H1121.81C1121.81 174.882 1121.24 158.334 1120.67 153.633V153.698ZM989.566 167.992C990.14 128.457 998.374 76.3657 1038.84 76.3657C1079.31 76.3657 1087.54 128.264 1088.11 167.992H989.63H989.566Z" fill="white" fill-opacity="0.4"/>
<path d="M890.123 67.3512C870.464 67.3512 853.295 79.6496 844.168 97.9363V66.9648C818.446 72.7599 795.788 72.7599 795.788 72.7599V75.8506C795.788 77.9755 797.511 79.714 799.617 79.714C805.298 79.714 809.893 84.3501 809.893 90.0807V249.252C809.893 258.782 802.234 266.573 792.724 266.573C790.043 266.573 787.873 268.762 787.873 271.467V273.463H809.893H844.168H886.549C886.549 269.664 883.485 266.573 879.719 266.573H868.231C854.955 266.573 844.232 255.755 844.232 242.362V123.435C844.359 111.394 848.7 99.8036 856.614 91.948C862.678 85.9598 870.273 82.4184 878.57 82.4184C897.654 82.4184 913.164 101.156 913.93 124.658H942.142C942.142 88.5354 916.037 67.3512 890.123 67.3512Z" fill="white" fill-opacity="0.4"/>
</g>
<defs>
<clipPath id="clip0_3468_163">
<rect width="1224" height="345" fill="white"/>
</clipPath>
</defs>
</svg>
