<svg width="221" height="43" viewBox="0 0 221 43" fill="none" xmlns="http://www.w3.org/2000/svg">
<g clip-path="url(#clip0_3759_162)">
<path d="M54.8984 9.64062C46.6753 9.64062 41.7773 16.9876 41.7773 26.2222C41.7773 35.4567 46.7556 42.9994 54.8984 42.9994C63.0413 42.9994 68.0693 35.5565 68.0693 26.3219C68.0693 17.0874 63.1178 9.64062 54.8984 9.64062ZM54.9941 41.5146C48.3398 41.3995 47.1345 32.564 47.1345 26.2759C47.1345 19.9878 48.2786 11.1254 54.9367 11.1254C61.5948 11.1254 62.739 19.9494 62.739 26.2759C62.739 32.6023 61.6216 41.6336 54.9941 41.5146Z" fill="#1D1D1B"/>
<path d="M220.227 41.0975H220.024C218.654 41.0975 217.434 40.2381 216.963 38.949L206.677 10.5586H204.137L194.234 38.8608C193.763 40.2036 192.496 41.1052 191.077 41.1013H190.327C189.898 41.1013 189.554 41.4466 189.554 41.8725V42.1871H198.871V41.8801C198.871 41.4543 198.527 41.1052 198.098 41.1052H197.211C196.097 41.1052 195.32 40.0002 195.688 38.949L203.329 17.192L211.166 38.9068C211.568 40.0118 210.707 41.1781 209.513 41.0937C209.073 41.063 208.705 41.4236 208.705 41.8648V42.1871H220.996V41.8725C220.996 41.4466 220.652 41.0975 220.223 41.0975H220.227Z" fill="#1D1D1B"/>
<path d="M123.206 14.8133L110.077 35.381V14.2954C110.077 12.8298 111.263 11.6405 112.725 11.6405H112.732C113.157 11.6405 113.505 11.2952 113.505 10.8655V10.5586H101.161V10.8655C101.161 11.2914 101.506 11.6405 101.934 11.6405H101.969C103.434 11.6405 104.62 12.8298 104.62 14.2992V42.1832H107.169L110.065 37.9208L123.206 17.403V38.4426C123.206 39.912 122.016 41.1013 120.55 41.1013H120.527C120.102 41.1013 119.758 41.4466 119.758 41.8725V42.1871H132.098V41.8763C132.098 41.4505 131.754 41.1052 131.329 41.1052H131.303C129.837 41.1052 128.651 39.9158 128.651 38.4464V14.2954C128.651 12.8298 129.833 11.6405 131.299 11.6367H131.329C131.754 11.6367 132.102 11.2875 132.102 10.8617V10.5586H126.102L123.209 14.8133H123.206Z" fill="#1D1D1B"/>
<path d="M38.1732 41.1047H37.5534C36.0993 41.1047 34.9169 39.9231 34.9169 38.4614V3.72145C34.9169 2.26356 36.0955 1.07807 37.5534 1.07807H38.1732C38.7664 1.07807 39.2485 0.594665 39.2485 0H25.1593C25.1593 0.594665 25.6414 1.07807 26.2345 1.07807H26.8391C28.2932 1.07807 29.4756 2.25973 29.4756 3.72145V19.6431H9.76525V3.72145C9.76525 2.26356 10.9438 1.07807 12.4017 1.07807H13.0025C13.5956 1.07807 14.0777 0.594665 14.0777 0H0C0 0.594665 0.48214 1.07807 1.07525 1.07807H1.68749C3.14156 1.07807 4.32395 2.25973 4.32395 3.72145V38.4614C4.32395 39.9193 3.14539 41.1047 1.68749 41.1047H1.07525C0.48214 41.1047 0 41.5882 0 42.1828H14.0777C14.0777 41.5882 13.5956 41.1047 13.0025 41.1047H12.4017C10.9476 41.1047 9.76525 39.9231 9.76525 38.4614V21.0166H29.4756V38.4614C29.4756 39.9193 28.297 41.1047 26.8391 41.1047H26.2345C25.6414 41.1047 25.1593 41.5882 25.1593 42.1828H39.2485C39.2485 41.5882 38.7664 41.1047 38.1732 41.1047Z" fill="#1D1D1B"/>
<path d="M88.4234 25.6094C91.7104 24.796 95.6402 21.8994 95.5216 17.192C95.4374 13.7698 92.7818 11.23 89.1811 10.8233C86.7818 10.5509 76.4311 10.5586 76.4311 10.5586H71.5332V10.8847C71.5332 11.3106 71.8814 11.6597 72.3062 11.6597H72.3329C73.7947 11.6597 74.9809 12.849 74.9809 14.3146V38.4465C74.9809 39.912 73.7947 41.1052 72.3291 41.1052H72.3023C71.8776 41.1052 71.5332 41.4505 71.5332 41.8763V42.1833H86.9655C93.0764 42.1833 97.0943 38.8646 97.4808 34.2646C97.9055 29.2618 93.6122 25.6094 88.4234 25.6094ZM80.4375 11.9321H83.2347C84.7768 11.9321 86.1237 12.028 86.9961 12.3196C89.4336 13.1329 90.2716 15.1088 90.5548 17.2726C90.8915 19.8392 90.241 22.5363 87.88 24.3203C87.1951 24.8344 85.9324 25.2526 85.0752 25.2526H80.4222L80.4375 11.9321ZM89.3418 40.0041C88.4846 40.5604 85.5994 40.8059 84.7806 40.8059H80.4222V26.6337H82.1518C83.1122 26.6299 84.264 26.6299 85.0331 26.6299C89.954 26.6299 92.4795 30.3705 92.4795 33.3707C92.4795 35.8338 92.0089 38.2738 89.3418 40.0041Z" fill="#1D1D1B"/>
<path d="M155.781 10.9307C153.546 10.5393 147.057 10.5585 142.117 10.5585C140.892 10.5585 137.219 10.5547 137.219 10.5547V10.8846C137.219 11.3067 137.559 11.6558 137.984 11.6596H138.018C139.484 11.6596 140.666 12.8489 140.666 14.3145V38.4425C140.67 39.9119 139.48 41.1013 138.015 41.1013H137.996C137.571 41.1013 137.226 41.4466 137.226 41.8724V42.1832H149.563V41.8762C149.563 41.4466 149.219 41.1013 148.79 41.1013H148.767C147.305 41.1013 146.115 39.9119 146.115 38.4425L146.108 29.3883H150.061C153.837 29.3883 156.057 28.011 157.331 27.0096C160.09 24.842 161.854 21.2164 161.234 17.4298C160.518 13.0561 157.802 11.2875 155.781 10.9307ZM149.808 28.0033C146.108 27.9956 146.108 28.0071 146.108 28.0071V11.932C146.108 11.932 146.108 11.9474 148.893 11.932C149.888 11.9282 152.115 12.1622 153.083 12.5382C155.249 13.3784 156.543 15.6113 156.864 17.2993C158.023 23.4532 154.671 28.011 149.808 28.0033Z" fill="#1D1D1B"/>
<path d="M183.431 40.8058H174.022V26.6336H175.747C176.256 26.6298 176.815 26.6298 177.347 26.6298H181.855C183.213 26.6298 184.315 27.7347 184.315 29.0967C184.315 29.5226 184.659 29.8679 185.084 29.8679H185.689V26.6298V22.0183H185.084C184.659 22.0183 184.315 22.3636 184.315 22.7894C184.315 24.1514 183.213 25.2525 181.858 25.2525H174.022V11.932H183.037C184.503 11.932 185.689 13.1213 185.689 14.5907C185.689 14.913 185.949 15.1701 186.267 15.1701H187.062V10.5547H170.027H165.129V10.8846C165.129 11.3067 165.469 11.6519 165.894 11.6558H165.932C167.394 11.6558 168.577 12.8413 168.577 14.3068V38.4464C168.577 39.9119 167.39 41.1013 165.929 41.1013H165.902C165.473 41.1013 165.129 41.4504 165.129 41.8762V42.1832H187.457V36.7007L186.863 36.6931C186.435 36.6854 186.083 37.0345 186.083 37.4642V38.151C186.083 39.6204 184.897 40.8097 183.431 40.8097V40.8058Z" fill="#1D1D1B"/>
</g>
<defs>
<clipPath id="clip0_3759_162">
<rect width="221" height="43" fill="white"/>
</clipPath>
</defs>
</svg>
