<svg width="610" height="118" viewBox="0 0 610 118" fill="none" xmlns="http://www.w3.org/2000/svg">
<g clip-path="url(#clip0_3759_171)">
<path d="M151.531 26.457C128.834 26.457 115.314 46.6185 115.314 71.9599C115.314 97.3013 129.055 118 151.531 118C174.007 118 187.885 97.575 187.885 72.2336C187.885 46.8923 174.218 26.457 151.531 26.457ZM151.795 113.925C133.428 113.609 130.101 89.363 130.101 72.1073C130.101 54.8516 133.259 30.5314 151.637 30.5314C170.014 30.5314 173.172 54.7463 173.172 72.1073C173.172 89.4683 170.088 114.252 151.795 113.925Z" fill="white"/>
<path d="M607.867 112.777H607.307C603.526 112.777 600.157 110.419 598.858 106.881L570.467 28.9727H563.454L536.12 106.639C534.821 110.324 531.325 112.798 527.407 112.788H525.337C524.154 112.788 523.203 113.735 523.203 114.904V115.767H548.921V114.925C548.921 113.756 547.971 112.798 546.788 112.798H544.337C541.264 112.798 539.12 109.766 540.134 106.881L561.226 47.1759L582.856 106.765C583.965 109.798 581.589 112.998 578.294 112.767C577.079 112.682 576.065 113.672 576.065 114.883V115.767H609.99V114.904C609.99 113.735 609.039 112.777 607.856 112.777H607.867Z" fill="white"/>
<path d="M340.071 40.6484L303.833 97.0901V39.2271C303.833 35.2053 307.107 31.9416 311.142 31.9416H311.163C312.335 31.9416 313.296 30.9941 313.296 29.8149V28.9727H279.224V29.8149C279.224 30.9835 280.174 31.9416 281.357 31.9416H281.452C285.497 31.9416 288.772 35.2053 288.772 39.2376V115.757H295.806L303.801 104.06L340.071 47.755V105.492C340.071 109.524 336.786 112.788 332.741 112.788H332.677C331.505 112.788 330.554 113.735 330.554 114.904V115.767H364.616V114.914C364.616 113.746 363.666 112.798 362.493 112.798H362.419C358.374 112.798 355.1 109.534 355.1 105.502V39.2271C355.1 35.2053 358.364 31.9416 362.409 31.9311H362.493C363.666 31.9311 364.627 30.973 364.627 29.8044V28.9727H348.066L340.081 40.6484H340.071Z" fill="white"/>
<path d="M105.365 112.799H103.654C99.6405 112.799 96.3769 109.556 96.3769 105.545V10.2123C96.3769 6.21163 99.63 2.95842 103.654 2.95842H105.365C107.002 2.95842 108.333 1.63187 108.333 0H69.4442C69.4442 1.63187 70.775 2.95842 72.4121 2.95842H74.0808C78.0944 2.95842 81.358 6.20111 81.358 10.2123V53.9044H26.9539V10.2123C26.9539 6.21163 30.2069 2.95842 34.231 2.95842H35.8892C37.5263 2.95842 38.8571 1.63187 38.8571 0H0C0 1.63187 1.33079 2.95842 2.96788 2.95842H4.65778C8.67128 2.95842 11.9349 6.20111 11.9349 10.2123V105.545C11.9349 109.546 8.68184 112.799 4.65778 112.799H2.96788C1.33079 112.799 0 114.126 0 115.757H38.8571C38.8571 114.126 37.5263 112.799 35.8892 112.799H34.231C30.2175 112.799 26.9539 109.556 26.9539 105.545V57.6734H81.358V105.545C81.358 109.546 78.1049 112.799 74.0808 112.799H72.4121C70.775 112.799 69.4442 114.126 69.4442 115.757H108.333C108.333 114.126 107.002 112.799 105.365 112.799Z" fill="white"/>
<path d="M244.063 70.2748C253.136 68.0428 263.983 60.0941 263.656 47.176C263.423 37.7848 256.093 30.8151 246.155 29.6992C239.532 28.9517 210.963 28.9727 210.963 28.9727H197.443V29.8676C197.443 31.0362 198.404 31.9943 199.577 31.9943H199.651C203.685 31.9943 206.96 35.258 206.96 39.2798V105.502C206.96 109.524 203.685 112.798 199.64 112.798H199.566C198.394 112.798 197.443 113.746 197.443 114.914V115.757H240.039C256.907 115.757 267.997 106.65 269.063 94.0264C270.236 80.2977 258.385 70.2748 244.063 70.2748ZM222.021 32.7418H229.742C233.998 32.7418 237.716 33.005 240.124 33.8052C246.852 36.0371 249.165 41.4592 249.946 47.3971C250.876 54.4404 249.08 61.8417 242.564 66.7373C240.673 68.1481 237.188 69.2957 234.822 69.2957H221.979L222.021 32.7418ZM246.598 109.777C244.232 111.303 236.269 111.977 234.008 111.977H221.979V73.0858H226.753C229.404 73.0753 232.583 73.0753 234.706 73.0753C248.288 73.0753 255.259 83.3403 255.259 91.5734C255.259 98.3325 253.96 105.028 246.598 109.777Z" fill="white"/>
<path d="M429.984 29.9947C423.815 28.9208 405.903 28.9734 392.267 28.9734C388.887 28.9734 378.748 28.9629 378.748 28.9629V29.8683C378.748 31.0264 379.688 31.9845 380.86 31.995H380.955C385.001 31.995 388.264 35.2588 388.264 39.2805V105.492C388.275 109.525 384.99 112.788 380.945 112.788H380.892C379.72 112.788 378.769 113.736 378.769 114.905V115.757H412.821V114.915C412.821 113.736 411.87 112.788 410.687 112.788H410.624C406.589 112.788 403.304 109.525 403.304 105.492L403.283 80.6458H414.194C424.618 80.6458 430.744 76.8662 434.261 74.1183C441.876 68.1699 446.745 58.2207 445.034 47.8294C443.059 35.8273 435.56 30.9738 429.984 29.9947ZM413.497 76.8451C403.283 76.8241 403.283 76.8556 403.283 76.8556V32.7425C403.283 32.7425 403.283 32.7846 410.972 32.7425C413.718 32.732 419.865 33.3742 422.537 34.406C428.516 36.7116 432.085 42.839 432.973 47.4715C436.173 64.3587 426.921 76.8662 413.497 76.8451Z" fill="white"/>
<path d="M506.303 111.978H480.332V73.0865H485.095C486.5 73.076 488.042 73.076 489.51 73.076H501.952C505.701 73.076 508.743 76.1081 508.743 79.8456C508.743 81.0143 509.694 81.9618 510.866 81.9618H512.535V73.076V60.4211H510.866C509.694 60.4211 508.743 61.3687 508.743 62.5373C508.743 66.2748 505.701 69.2964 501.963 69.2964H480.332V32.7425H505.216C509.261 32.7425 512.535 36.0063 512.535 40.0385C512.535 40.9229 513.253 41.6283 514.13 41.6283H516.327V28.9629H469.305H455.786V29.8683C455.786 31.0264 456.726 31.974 457.899 31.9845H458.004C462.039 31.9845 465.302 35.2377 465.302 39.2595V105.503C465.302 109.525 462.028 112.788 457.994 112.788H457.92C456.737 112.788 455.786 113.746 455.786 114.915V115.757H517.415V100.713L515.777 100.691C514.595 100.67 513.623 101.628 513.623 102.808V104.692C513.623 108.724 510.349 111.988 506.303 111.988V111.978Z" fill="white"/>
</g>
<defs>
<clipPath id="clip0_3759_171">
<rect width="610" height="118" fill="white"/>
</clipPath>
</defs>
</svg>
