<svg width="147" height="41" viewBox="0 0 147 41" fill="none" xmlns="http://www.w3.org/2000/svg"><g clip-path="url(#clip0_3503_104)"><path d="M37.2465 7.95101C31.0068 7.95101 27.2891 13.5064 27.2891 20.4775C27.2891 27.4486 31.0681 33.1494 37.2465 33.1494C43.4248 33.1494 47.2422 27.5251 47.2422 20.5464C47.2422 13.5677 43.4861 7.94336 37.2465 7.94336V7.95101ZM37.3155 32.0322C32.2639 31.948 31.3517 25.2677 31.3517 20.5234C31.3517 15.7791 32.2179 9.07587 37.2695 9.07587C42.321 9.07587 43.1872 15.7409 43.1872 20.5234C43.1872 25.306 42.344 32.124 37.3078 32.0322H37.3155Z" fill="white"/><path d="M25.2193 0.665855C25.2193 1.08672 24.974 1.43872 24.6444 1.56115C24.6444 1.56115 24.5754 1.57646 24.5447 1.59176C24.1385 1.70654 23.7705 1.92845 23.4792 2.21923C23.0346 2.67071 22.7587 3.28288 22.7587 3.96391V32.491H21.1106L4.11634 5.06582V29.2082C4.11634 30.3331 4.87522 31.2819 5.90238 31.5804C5.94071 31.5804 5.97137 31.5957 6.00203 31.611C6.33931 31.7258 6.57694 32.0778 6.57694 32.5063H0C0 32.0854 0.245294 31.7334 0.574908 31.611C0.574908 31.611 0.643896 31.5957 0.674558 31.5804C1.08083 31.4656 1.44877 31.2437 1.74005 30.9529C2.18465 30.5014 2.4606 29.8893 2.4606 29.2082V3.95626C2.4606 2.8314 1.70173 1.88254 0.674558 1.58411C0.636231 1.58411 0.605569 1.5688 0.574908 1.5535C0.237628 1.43872 0 1.08672 0 0.658203H6.25499L6.50795 1.06376L21.0953 24.1119V3.95626C21.0953 2.8314 20.3364 1.88254 19.3092 1.58411C19.2709 1.58411 19.2402 1.5688 19.2096 1.5535C18.8723 1.43872 18.6347 1.08672 18.6347 0.658203H25.2269L25.2193 0.665855Z" fill="white"/><path d="M87.2935 8.63867V8.75345C87.2935 9.14371 87.6078 9.45745 87.9987 9.45745C88.8572 9.45745 89.4551 10.3068 89.1562 11.1103L83.5528 26.4757L77.9493 11.1103C77.658 10.3068 78.2559 9.45745 79.1145 9.45745C79.5054 9.45745 79.8197 9.14371 79.8197 8.75345V8.63867H64.1669V8.75345C64.1669 9.14371 64.4812 9.45745 64.8721 9.45745C65.7306 9.45745 66.3285 10.3068 66.0373 11.1103L60.4338 26.4681L54.8304 11.1103C54.5391 10.3068 55.137 9.45745 55.9879 9.45745C56.3788 9.45745 56.6931 9.14371 56.6931 8.75345V8.63867H47.3643V8.72284C47.3643 9.12841 47.6939 9.4651 48.1078 9.4651C49.1503 9.4651 50.0778 10.1155 50.4304 11.0873L58.2338 32.4903H59.9892L67.7926 11.0873C68.1452 10.1155 69.0728 9.4651 70.1153 9.4651H71.2267C72.2616 9.4651 73.1891 10.1155 73.5494 11.0873L80.6936 30.5696C81.2991 32.2225 79.7584 35.9567 78.7465 37.3264C76.9145 39.8057 73.856 40.2648 71.9933 39.3695C69.8623 38.3442 68.9501 36.301 68.4212 33.2938H64.3739C65.8686 38.0457 68.9808 39.6756 71.0198 40.3949C73.8023 41.3744 76.9375 41.2214 78.9995 39.5455C81.828 37.2346 82.9395 33.0259 84.6489 28.3276C90.9269 11.0644 90.0377 13.5131 90.9269 11.0644C91.2795 10.1079 92.1917 9.4651 93.2112 9.4651H93.2189C93.6328 9.4651 93.9777 9.12841 93.9777 8.70754V8.63867H87.2782H87.2935Z" fill="white"/><path d="M137.112 32.4985H146.985C146.985 32.4985 146.993 32.4985 146.993 32.4908V32.4679C146.993 32.0317 146.64 31.6797 146.203 31.6797H146.142C145.023 31.6797 144.111 30.7691 144.111 29.6519V0.00765211C144.111 0.00765211 144.103 0 144.095 0C141.006 0.665733 137.925 0.665733 137.925 0.665733C137.925 1.11721 138.292 1.49216 138.752 1.49216C139.09 1.49216 139.404 1.6299 139.626 1.85181C139.849 2.07372 139.987 2.38746 139.987 2.72415V29.6443C139.987 30.7615 139.074 31.6721 137.955 31.6721H137.894C137.457 31.6721 137.097 32.0241 137.097 32.4679V32.4908C137.097 32.4908 137.097 32.4985 137.104 32.4985H137.112Z" fill="white"/><path d="M134.59 18.2662C133.854 12.3894 130.274 7.95117 124.732 7.95117C118.492 7.95117 114.774 13.5066 114.774 20.4777C114.774 27.4487 118.553 33.1496 124.732 33.1496C129.4 33.1496 133.371 29.9969 134.728 25.4822H130.68C130.075 29.3159 128.212 32.0859 124.808 32.0324C119.857 31.9482 118.883 25.5128 118.845 20.7838H134.728C134.728 20.7838 134.659 18.8172 134.59 18.2586V18.2662ZM118.845 19.965C118.914 15.2666 119.903 9.07603 124.762 9.07603C129.622 9.07603 130.611 15.2436 130.68 19.965H118.852H118.845Z" fill="white"/><path d="M106.902 8.0049C104.541 8.0049 102.479 9.46645 101.383 11.6396V7.95898C98.2938 8.64767 95.5726 8.64767 95.5726 8.64767V9.01498C95.5726 9.26749 95.7795 9.4741 96.0325 9.4741C96.7147 9.4741 97.2666 10.0251 97.2666 10.7061V29.6221C97.2666 30.7546 96.3468 31.6805 95.2046 31.6805C94.8827 31.6805 94.6221 31.9407 94.6221 32.2621V32.4993H97.2666H101.383H106.473C106.473 32.0478 106.105 31.6805 105.653 31.6805H104.273C102.678 31.6805 101.391 30.395 101.391 28.8033V14.6699C101.406 13.2389 101.927 11.8616 102.878 10.928C103.606 10.2164 104.518 9.79549 105.515 9.79549C107.807 9.79549 109.669 12.0223 109.761 14.8153H113.149C113.149 10.5224 110.014 8.0049 106.902 8.0049Z" fill="white"/></g><defs><clipPath id="clip0_3503_104"><rect width="147" height="41" fill="white"/></clipPath></defs></svg>