<svg width="206" height="58" viewBox="0 0 206 58" fill="none" xmlns="http://www.w3.org/2000/svg"><g clip-path="url(#clip0_3380_356)"><path d="M52.1961 11.2472C43.4521 11.2472 38.2422 19.1061 38.2422 28.9676C38.2422 38.8291 43.538 46.8937 52.1961 46.8937C60.8542 46.8937 66.2037 38.9373 66.2037 29.065C66.2037 19.1927 60.9401 11.2363 52.1961 11.2363V11.2472ZM52.2928 45.3132C45.2138 45.1941 43.9355 35.744 43.9355 29.0325C43.9355 22.3211 45.1493 12.8384 52.2283 12.8384C59.3073 12.8384 60.5212 22.2669 60.5212 29.0325C60.5212 35.7981 59.3395 45.4431 52.282 45.3132H52.2928Z" fill="#222220"/><path d="M35.3413 0.942466C35.3413 1.53784 34.9976 2.03578 34.5356 2.20898C34.5356 2.20898 34.439 2.23063 34.396 2.25228C33.8267 2.41466 33.3111 2.72858 32.9029 3.13993C32.2798 3.7786 31.8931 4.64459 31.8931 5.60801V45.9634H29.5836L5.76847 7.1668V41.3195C5.76847 42.9107 6.83193 44.253 8.27137 44.6752C8.32508 44.6752 8.36805 44.6969 8.41101 44.7185C8.88366 44.8809 9.21667 45.3788 9.21667 45.985H0C0 45.3897 0.343745 44.8917 0.805653 44.7185C0.805653 44.7185 0.902331 44.6969 0.945299 44.6752C1.51463 44.5128 2.03024 44.1989 2.43844 43.7876C3.06148 43.1489 3.44819 42.2829 3.44819 41.3195V5.59719C3.44819 4.00592 2.38473 2.66363 0.945299 2.24146C0.891589 2.24146 0.848621 2.21981 0.805653 2.19816C0.333003 2.03578 0 1.53784 0 0.931641H8.7655L9.11999 1.50536L29.5621 34.1101V5.59719C29.5621 4.00592 28.4986 2.66363 27.0592 2.24146C27.0055 2.24146 26.9625 2.21981 26.9195 2.19816C26.4469 2.03578 26.1139 1.53784 26.1139 0.931641H35.352L35.3413 0.942466Z" fill="#222220"/><path d="M122.33 12.2207V12.3831C122.33 12.9351 122.771 13.379 123.319 13.379C124.522 13.379 125.36 14.5805 124.941 15.7172L117.088 37.4536L109.236 15.7172C108.828 14.5805 109.665 13.379 110.869 13.379C111.416 13.379 111.857 12.9351 111.857 12.3831V12.2207H89.9215V12.3831C89.9215 12.9351 90.362 13.379 90.9098 13.379C92.1129 13.379 92.9508 14.5805 92.5426 15.7172L84.6902 37.4428L76.8377 15.7172C76.4295 14.5805 77.2674 13.379 78.4598 13.379C79.0076 13.379 79.4481 12.9351 79.4481 12.3831V12.2207H66.375V12.3398C66.375 12.9135 66.8369 13.3898 67.417 13.3898C68.8779 13.3898 70.1777 14.3099 70.6718 15.6847L81.6072 45.962H84.0671L95.0025 15.6847C95.4967 14.3099 96.7964 13.3898 98.2574 13.3898H99.8149C101.265 13.3898 102.565 14.3099 103.07 15.6847L113.081 43.245C113.93 45.5831 111.771 50.8657 110.353 52.8034C107.786 56.3107 103.499 56.9602 100.889 55.6936C97.9029 54.2431 96.6246 51.3528 95.8834 47.0986H90.2116C92.3063 53.8209 96.6675 56.1266 99.5249 57.1442C103.424 58.5298 107.818 58.3133 110.707 55.9426C114.671 52.6735 116.229 46.7198 118.624 40.0733C127.422 15.6522 126.176 19.1162 127.422 15.6522C127.916 14.2991 129.194 13.3898 130.623 13.3898H130.634C131.214 13.3898 131.697 12.9135 131.697 12.3181V12.2207H122.309H122.33Z" fill="#222220"/><path d="M192.143 45.9735H205.978C205.978 45.9735 205.989 45.9735 205.989 45.9627V45.9302C205.989 45.3132 205.495 44.8152 204.883 44.8152H204.797C203.228 44.8152 201.95 43.5271 201.95 41.9466V0.0108249C201.95 0.0108249 201.939 0 201.929 0C197.6 0.941769 193.281 0.941769 193.281 0.941769C193.281 1.58044 193.797 2.11086 194.441 2.11086C194.914 2.11086 195.354 2.30571 195.666 2.61963C195.977 2.93356 196.171 3.37738 196.171 3.85368V41.9358C196.171 43.5162 194.893 44.8044 193.324 44.8044H193.238C192.626 44.8044 192.121 45.3023 192.121 45.9302V45.9627C192.121 45.9627 192.121 45.9735 192.132 45.9735H192.143Z" fill="#222220"/><path d="M188.609 25.8401C187.578 17.5265 182.561 11.248 174.795 11.248C166.051 11.248 160.841 19.107 160.841 28.9685C160.841 38.83 166.137 46.8946 174.795 46.8946C181.337 46.8946 186.901 42.4347 188.802 36.048H183.131C182.282 41.4713 179.672 45.3899 174.902 45.3141C167.963 45.195 166.599 36.0913 166.545 29.4015H188.802C188.802 29.4015 188.706 26.6195 188.609 25.8292V25.8401ZM166.545 28.2432C166.642 21.5967 168.027 12.8393 174.838 12.8393C181.648 12.8393 183.034 21.5642 183.131 28.2432H166.556H166.545Z" fill="#222220"/><path d="M149.808 11.3228C146.5 11.3228 143.61 13.3903 142.074 16.4646V11.2578C137.745 12.2321 133.932 12.2321 133.932 12.2321V12.7517C133.932 13.1089 134.222 13.4011 134.576 13.4011C135.532 13.4011 136.306 14.1805 136.306 15.144V41.9032C136.306 43.5053 135.017 44.8151 133.416 44.8151C132.965 44.8151 132.6 45.1832 132.6 45.6378V45.9734H136.306H142.074H149.207C149.207 45.3347 148.691 44.8151 148.057 44.8151H146.124C143.889 44.8151 142.085 42.9965 142.085 40.7449V20.7513C142.106 18.727 142.837 16.7785 144.169 15.4579C145.189 14.4512 146.468 13.8558 147.864 13.8558C151.076 13.8558 153.686 17.0059 153.815 20.957H158.563C158.563 14.8842 154.17 11.3228 149.808 11.3228Z" fill="#222220"/></g><defs><clipPath id="clip0_3380_356"><rect width="206" height="58" fill="white"/></clipPath></defs></svg>