<svg width="532" height="149" viewBox="0 0 532 149" fill="none" xmlns="http://www.w3.org/2000/svg"><g clip-path="url(#clip0_3386_394)"><path d="M134.796 28.893C112.214 28.893 98.7598 49.0823 98.7598 74.4162C98.7598 99.7501 112.436 120.468 134.796 120.468C157.156 120.468 170.971 100.028 170.971 74.6665C170.971 49.3048 157.378 28.8652 134.796 28.8652V28.893ZM135.046 116.408C116.764 116.102 113.463 91.8245 113.463 74.583C113.463 57.3415 116.598 32.9809 134.879 32.9809C153.161 32.9809 156.296 57.2025 156.296 74.583C156.296 91.9636 153.244 116.741 135.018 116.408H135.046Z" fill="white"/><path d="M91.2698 2.41843C91.2698 3.94792 90.382 5.22713 89.1891 5.67207C89.1891 5.67207 88.9395 5.72769 88.8285 5.78331C87.3582 6.20044 86.0266 7.0069 84.9724 8.06364C83.3634 9.70436 82.3647 11.9291 82.3647 14.4041V118.076H76.4003L14.8972 18.4085V106.146C14.8972 110.233 17.6436 113.682 21.361 114.766C21.4997 114.766 21.6107 114.822 21.7216 114.878C22.9423 115.295 23.8023 116.574 23.8023 118.131H0C0 116.602 0.88773 115.323 2.08062 114.878C2.08062 114.878 2.33029 114.822 2.44126 114.766C3.91156 114.349 5.24316 113.543 6.29734 112.486C7.90635 110.845 8.90504 108.621 8.90504 106.146V14.3763C8.90504 10.2883 6.15863 6.84005 2.44126 5.7555C2.30255 5.7555 2.19158 5.69988 2.08062 5.64426C0.859989 5.22713 0 3.94792 0 2.39062H22.6371L23.5526 3.8645L76.3448 87.6248V14.3763C76.3448 10.2883 73.5984 6.84005 69.881 5.7555C69.7423 5.7555 69.6313 5.69988 69.5204 5.64426C68.2997 5.22713 67.4398 3.94792 67.4398 2.39062H91.2975L91.2698 2.41843Z" fill="white"/><path d="M315.921 31.3965V31.8136C315.921 33.2319 317.058 34.372 318.473 34.372C321.58 34.372 323.744 37.4588 322.662 40.3788L302.383 96.219L282.104 40.3788C281.05 37.4588 283.214 34.372 286.321 34.372C287.735 34.372 288.873 33.2319 288.873 31.8136V31.3965H232.225V31.8136C232.225 33.2319 233.362 34.372 234.777 34.372C237.884 34.372 240.048 37.4588 238.993 40.3788L218.714 96.1912L198.435 40.3788C197.381 37.4588 199.545 34.372 202.624 34.372C204.039 34.372 205.177 33.2319 205.177 31.8136V31.3965H171.415V31.7024C171.415 33.1763 172.608 34.3998 174.106 34.3998C177.879 34.3998 181.236 36.7636 182.512 40.2953L210.753 118.077H217.105L245.346 40.2953C246.622 36.7636 249.979 34.3998 253.752 34.3998H257.775C261.52 34.3998 264.876 36.7636 266.18 40.2953L292.035 111.097C294.227 117.103 288.651 130.674 284.989 135.652C278.359 144.662 267.29 146.331 260.549 143.077C252.837 139.351 249.535 131.926 247.621 120.997H232.974C238.383 138.266 249.646 144.189 257.026 146.803C267.096 150.363 278.442 149.807 285.904 143.717C296.141 135.318 300.164 120.023 306.35 102.949C329.07 40.2119 325.852 49.1107 329.07 40.2119C330.346 36.7358 333.648 34.3998 337.337 34.3998H337.365C338.863 34.3998 340.111 33.1763 340.111 31.6468V31.3965H315.865H315.921Z" fill="white"/><path d="M496.214 118.104H531.945C531.945 118.104 531.973 118.104 531.973 118.077V117.993C531.973 116.408 530.696 115.129 529.115 115.129H528.893C524.843 115.129 521.542 111.82 521.542 107.759V0.0278089C521.542 0.0278089 521.514 0 521.486 0C510.306 2.41937 499.154 2.41937 499.154 2.41937C499.154 4.0601 500.486 5.42273 502.15 5.42273C503.371 5.42273 504.508 5.92329 505.313 6.72975C506.117 7.53621 506.617 8.67637 506.617 9.89996V107.732C506.617 111.792 503.316 115.101 499.265 115.101H499.043C497.462 115.101 496.158 116.38 496.158 117.993V118.077C496.158 118.077 496.158 118.104 496.186 118.104H496.214Z" fill="white"/><path d="M487.086 66.379C484.423 45.0217 471.467 28.8926 451.41 28.8926C428.829 28.8926 415.374 49.0818 415.374 74.4157C415.374 99.7496 429.051 120.467 451.41 120.467C468.305 120.467 482.675 109.01 487.585 92.6027H472.938C470.746 106.535 464.005 116.602 451.688 116.407C433.767 116.101 430.243 92.714 430.105 75.5281H487.585C487.585 75.5281 487.336 68.3812 487.086 66.3511V66.379ZM430.105 72.5525C430.354 55.4779 433.933 32.9805 451.521 32.9805C469.109 32.9805 472.688 55.3944 472.938 72.5525H430.133H430.105Z" fill="white"/><path d="M386.883 29.0887C378.339 29.0887 370.876 34.4002 366.909 42.2979V28.9219C355.73 31.4247 345.881 31.4247 345.881 31.4247V32.7595C345.881 33.6772 346.63 34.428 347.546 34.428C350.015 34.428 352.012 36.4303 352.012 38.9053V107.649C352.012 111.765 348.683 115.129 344.55 115.129C343.385 115.129 342.441 116.075 342.441 117.243V118.105H352.012H366.909H385.33C385.33 116.464 383.998 115.129 382.362 115.129H377.368C371.598 115.129 366.937 110.458 366.937 104.673V53.3103C366.993 48.11 368.879 43.1044 372.319 39.7117C374.955 37.1255 378.256 35.596 381.862 35.596C390.157 35.596 396.898 43.6884 397.231 53.8386H409.493C409.493 38.2379 398.146 29.0887 386.883 29.0887Z" fill="white"/></g><defs><clipPath id="clip0_3386_394"><rect width="532" height="149" fill="white"/></clipPath></defs></svg>