<svg width="137" height="26" viewBox="0 0 137 26" fill="none" xmlns="http://www.w3.org/2000/svg"><g clip-path="url(#clip0_3760_280)"><path d="M34.0323 5.83008C28.9347 5.83008 25.8984 10.2724 25.8984 15.8561C25.8984 21.4398 28.9845 26.0005 34.0323 26.0005C39.0801 26.0005 42.1971 21.5001 42.1971 15.9164C42.1971 10.3328 39.1276 5.83008 34.0323 5.83008ZM34.0916 25.1027C29.9666 25.0331 29.2194 19.6907 29.2194 15.8886C29.2194 12.0865 29.9286 6.72783 34.0561 6.72783C38.1835 6.72783 38.8927 12.0633 38.8927 15.8886C38.8927 19.7139 38.2001 25.1747 34.0916 25.1027Z" fill="white"/><path d="M136.521 24.8501H136.395C135.546 24.8501 134.789 24.3305 134.497 23.5511L128.121 6.38477H126.546L120.407 23.4977C120.115 24.3096 119.33 24.8548 118.45 24.8525H117.985C117.719 24.8525 117.506 25.0612 117.506 25.3187V25.509H123.282V25.3234C123.282 25.0659 123.068 24.8548 122.803 24.8548H122.252C121.562 24.8548 121.081 24.1867 121.308 23.5511L126.045 10.3957L130.903 23.5256C131.152 24.1937 130.619 24.8989 129.879 24.8478C129.606 24.8293 129.378 25.0473 129.378 25.3141V25.509H136.997V25.3187C136.997 25.0612 136.784 24.8501 136.518 24.8501H136.521Z" fill="white"/><path d="M76.3765 8.95739L68.2379 21.3937V8.64422C68.2379 7.75807 68.9733 7.03894 69.8794 7.03894H69.8841C70.1474 7.03894 70.3633 6.83016 70.3633 6.57035V6.38477H62.7109V6.57035C62.7109 6.82784 62.9244 7.03894 63.1901 7.03894H63.2115C64.12 7.03894 64.8553 7.75807 64.8553 8.64654V25.5066H66.4351L68.2308 22.9294L76.3765 10.5232V23.2449C76.3765 24.1333 75.6388 24.8525 74.7303 24.8525H74.7161C74.4528 24.8525 74.2393 25.0612 74.2393 25.3187V25.509H81.8893V25.3211C81.8893 25.0636 81.6758 24.8548 81.4125 24.8548H81.3959C80.4874 24.8548 79.752 24.1357 79.752 23.2472V8.64422C79.752 7.75807 80.485 7.03894 81.3935 7.03662H81.4125C81.6758 7.03662 81.8917 6.82552 81.8917 6.56803V6.38477H78.1722L76.3789 8.95739H76.3765Z" fill="white"/><path d="M23.664 24.854H23.2797C22.3783 24.854 21.6453 24.1395 21.6453 23.2557V2.25018C21.6453 1.36867 22.3759 0.651856 23.2797 0.651856H23.664C24.0316 0.651856 24.3305 0.359565 24.3305 0H15.5965C15.5965 0.359565 15.8954 0.651856 16.263 0.651856H16.6378C17.5392 0.651856 18.2722 1.36635 18.2722 2.25018V11.8772H6.05357V2.25018C6.05357 1.36867 6.78417 0.651856 7.68794 0.651856H8.06036C8.42803 0.651856 8.72691 0.359565 8.72691 0H0C0 0.359565 0.298883 0.651856 0.666557 0.651856H1.04609C1.94748 0.651856 2.68046 1.36635 2.68046 2.25018V23.2557C2.68046 24.1372 1.94986 24.854 1.04609 24.854H0.666557C0.298883 24.854 0 25.1463 0 25.5059H8.72691C8.72691 25.1463 8.42803 24.854 8.06036 24.854H7.68794C6.78655 24.854 6.05357 24.1395 6.05357 23.2557V12.7077H18.2722V23.2557C18.2722 24.1372 17.5416 24.854 16.6378 24.854H16.263C15.8954 24.854 15.5965 25.1463 15.5965 25.5059H24.3305C24.3305 25.1463 24.0316 24.854 23.664 24.854Z" fill="white"/><path d="M54.8142 15.4852C56.8518 14.9935 59.2879 13.242 59.2144 10.3957C59.1622 8.32643 57.516 6.79074 55.2838 6.54484C53.7965 6.38014 47.38 6.38478 47.38 6.38478H44.3438V6.58196C44.3438 6.83945 44.5596 7.05055 44.8229 7.05055H44.8395C45.7457 7.05055 46.481 7.76968 46.481 8.65584V23.2472C46.481 24.1334 45.7457 24.8548 44.8371 24.8548H44.8205C44.5572 24.8548 44.3438 25.0636 44.3438 25.3211V25.5067H53.9104C57.6986 25.5067 60.1893 23.5001 60.4289 20.7186C60.6922 17.6937 58.0307 15.4852 54.8142 15.4852ZM49.8636 7.21526H51.5976C52.5536 7.21526 53.3885 7.27325 53.9294 7.44955C55.4404 7.94135 55.9599 9.13603 56.1354 10.4444C56.3441 11.9963 55.9409 13.6271 54.4773 14.7058C54.0527 15.0166 53.2699 15.2695 52.7386 15.2695H49.8541L49.8636 7.21526ZM55.3835 24.189C54.8521 24.5254 53.0635 24.6739 52.5559 24.6739H49.8541V16.1046H50.9263C51.5217 16.1023 52.2357 16.1023 52.7125 16.1023C55.763 16.1023 57.3286 18.3641 57.3286 20.1781C57.3286 21.6674 57.0368 23.1428 55.3835 24.189Z" fill="white"/><path d="M96.5705 6.6082C95.1852 6.37158 91.1621 6.38318 88.0997 6.38318C87.3407 6.38318 85.0635 6.38086 85.0635 6.38086V6.58036C85.0635 6.83553 85.2746 7.04663 85.5379 7.04895H85.5592C86.4678 7.04895 87.2007 7.76808 87.2007 8.65424V23.2433C87.2031 24.1318 86.4654 24.8509 85.5569 24.8509H85.545C85.2817 24.8509 85.0682 25.0597 85.0682 25.3172V25.5051H92.7158V25.3195C92.7158 25.0597 92.5023 24.8509 92.2367 24.8509H92.2224C91.3163 24.8509 90.5786 24.1318 90.5786 23.2433L90.5738 17.7686H93.0242C95.3655 17.7686 96.7413 16.9358 97.5312 16.3304C99.2415 15.0197 100.335 12.8275 99.9507 10.5379C99.5071 7.89335 97.8229 6.82394 96.5705 6.6082ZM92.8676 16.9312C90.5738 16.9265 90.5738 16.9335 90.5738 16.9335V7.21366C90.5738 7.21366 90.5738 7.22294 92.3007 7.21366C92.9175 7.21134 94.298 7.35284 94.8982 7.58018C96.2408 8.08821 97.0425 9.43832 97.2418 10.459C97.9605 14.1799 95.8826 16.9358 92.8676 16.9312Z" fill="white"/><path d="M113.711 24.6723H107.878V16.103H108.948C109.263 16.1007 109.61 16.1007 109.939 16.1007H112.734C113.576 16.1007 114.259 16.7688 114.259 17.5923C114.259 17.8498 114.472 18.0586 114.736 18.0586H115.11V16.1007V13.3123H114.736C114.472 13.3123 114.259 13.5211 114.259 13.7786C114.259 14.6021 113.576 15.2679 112.736 15.2679H107.878V7.21366H113.467C114.375 7.21366 115.11 7.93279 115.11 8.82126C115.11 9.01612 115.272 9.17154 115.469 9.17154H115.962V6.38086H105.402H102.365V6.58036C102.365 6.83553 102.576 7.04431 102.84 7.04663H102.863C103.77 7.04663 104.502 7.76344 104.502 8.6496V23.2456C104.502 24.1318 103.767 24.8509 102.861 24.8509H102.844C102.579 24.8509 102.365 25.062 102.365 25.3195V25.5051H116.206V22.1901L115.839 22.1855C115.573 22.1808 115.355 22.3919 115.355 22.6517V23.067C115.355 23.9554 114.619 24.6746 113.711 24.6746V24.6723Z" fill="white"/></g><defs><clipPath id="clip0_3760_280"><rect width="137" height="26" fill="white"/></clipPath></defs></svg>